<svg xmlns="http://www.w3.org/2000/svg" width="512" height="512" viewBox="0 0 512 512">
  <defs>
    <linearGradient id="bg" x1="0" y1="0" x2="1" y2="1"><stop stop-color="#192a3c"/><stop offset="1" stop-color="#080e1b"/></linearGradient>
    <linearGradient id="paper" x1="0" y1="0" x2="0" y2="1"><stop stop-color="#fff0c5"/><stop offset="1" stop-color="#c8a46e"/></linearGradient>
    <linearGradient id="teal" x1="0" y1="0" x2="1" y2="1"><stop stop-color="#acfff0"/><stop offset="1" stop-color="#24bcae"/></linearGradient>
    <linearGradient id="cover" x1="0" y1="0" x2="0" y2="1"><stop stop-color="#326171"/><stop offset="1" stop-color="#152b42"/></linearGradient>
  </defs>
  <rect x="8" y="8" width="496" height="496" rx="106" fill="url(#bg)" stroke="#34475e" stroke-width="4"/>
  <path d="M72 256a184 184 0 0 1 368 0 184 184 0 0 1-368 0" fill="none" stroke="#273d50" stroke-width="2"/>
  <path d="M114 152Q230 51 361 130" fill="none" stroke="#07131f" stroke-width="30" stroke-linecap="round"/>
  <path d="M114 146Q230 45 361 124" fill="none" stroke="url(#teal)" stroke-width="18" stroke-linecap="round"/>
  <path d="M343 88l40 51-64 3z" fill="#5ce1ce"/>
  <path d="M398 362Q282 463 151 384" fill="none" stroke="#07131f" stroke-width="30" stroke-linecap="round"/>
  <path d="M398 356Q282 457 151 378" fill="none" stroke="url(#teal)" stroke-width="18" stroke-linecap="round"/>
  <path d="M169 414l-40-51 64-3z" fill="#5ce1ce"/>
  <path d="M91 182Q180 155 256 195Q332 155 421 182V345Q333 322 256 362Q179 322 91 345z" fill="#050b14" stroke="#050b14" stroke-width="18" stroke-linejoin="round"/>
  <path d="M91 173Q180 146 256 186Q332 146 421 173V336Q333 313 256 353Q179 313 91 336z" fill="url(#cover)" stroke="#b99b61" stroke-width="5" stroke-linejoin="round"/>
  <path d="M108 165Q186 145 247 181V330Q184 300 108 319z" fill="url(#paper)"/>
  <path d="M404 165Q326 145 265 181V330Q328 300 404 319z" fill="url(#paper)"/>
  <path d="M256 184V345" stroke="#e2c78a" stroke-width="6" stroke-linecap="round"/>
  <path d="M123 303Q182 291 231 315M281 315Q330 291 389 303" fill="none" stroke="#856c4d" stroke-width="3"/>
  <path d="M178 198l-28 40 28 40 28-40zM178 198v88" fill="none" stroke="#234d58" stroke-width="10" stroke-linejoin="round" stroke-linecap="round"/>
  <path d="M332 199v83m-23-63 23 20 24-20m-47 39 23-19 24 19" fill="none" stroke="#234d58" stroke-width="10" stroke-linejoin="round" stroke-linecap="round"/>
  <path d="M256 154l9 15-9 15-9-15z" fill="#79edda"/>
</svg>
